<mxfile host="Electron" agent="Mozilla/5.0 (Windows NT 10.0; Win64; x64) AppleWebKit/537.36 (KHTML, like Gecko) draw.io/27.0.2 Chrome/134.0.6998.205 Electron/35.3.0 Safari/537.36" version="27.0.2">
  <diagram name="Page-1" id="jw-MnaiH-5VfDhVY47bK">
    <mxGraphModel dx="1892" dy="1726" grid="1" gridSize="10" guides="1" tooltips="1" connect="1" arrows="1" fold="1" page="1" pageScale="1" pageWidth="850" pageHeight="1100" math="0" shadow="0">
      <root>
        <mxCell id="0" />
        <mxCell id="1" parent="0" />
        <mxCell id="RIvgkRyRtE4WLVGtnzIA-1" value="" style="rounded=0;whiteSpace=wrap;html=1;" vertex="1" parent="1">
          <mxGeometry x="40" y="160" width="120" height="60" as="geometry" />
        </mxCell>
        <mxCell id="RIvgkRyRtE4WLVGtnzIA-2" value="" style="rounded=0;whiteSpace=wrap;html=1;" vertex="1" parent="1">
          <mxGeometry x="720" y="160" width="120" height="60" as="geometry" />
        </mxCell>
        <mxCell id="RIvgkRyRtE4WLVGtnzIA-3" value="User" style="text;html=1;align=center;verticalAlign=middle;whiteSpace=wrap;rounded=0;" vertex="1" parent="1">
          <mxGeometry x="70" y="175" width="60" height="30" as="geometry" />
        </mxCell>
        <mxCell id="RIvgkRyRtE4WLVGtnzIA-4" value="System" style="text;html=1;align=center;verticalAlign=middle;whiteSpace=wrap;rounded=0;" vertex="1" parent="1">
          <mxGeometry x="750" y="175" width="60" height="30" as="geometry" />
        </mxCell>
        <mxCell id="RIvgkRyRtE4WLVGtnzIA-5" value="" style="endArrow=none;html=1;rounded=0;exitX=1;exitY=0.25;exitDx=0;exitDy=0;entryX=0;entryY=0.25;entryDx=0;entryDy=0;" edge="1" parent="1" source="RIvgkRyRtE4WLVGtnzIA-1" target="RIvgkRyRtE4WLVGtnzIA-2">
          <mxGeometry width="50" height="50" relative="1" as="geometry">
            <mxPoint x="260" y="170" as="sourcePoint" />
            <mxPoint x="310" y="120" as="targetPoint" />
          </mxGeometry>
        </mxCell>
        <mxCell id="RIvgkRyRtE4WLVGtnzIA-6" value="" style="endArrow=classic;html=1;rounded=0;" edge="1" parent="1">
          <mxGeometry width="50" height="50" relative="1" as="geometry">
            <mxPoint x="360" y="160" as="sourcePoint" />
            <mxPoint x="410" y="160" as="targetPoint" />
          </mxGeometry>
        </mxCell>
        <mxCell id="RIvgkRyRtE4WLVGtnzIA-7" value="1.1.1: open login page" style="text;html=1;align=center;verticalAlign=middle;whiteSpace=wrap;rounded=0;" vertex="1" parent="1">
          <mxGeometry x="350" y="120" width="80" height="30" as="geometry" />
        </mxCell>
        <mxCell id="RIvgkRyRtE4WLVGtnzIA-8" value="" style="endArrow=none;html=1;rounded=0;exitX=1;exitY=0.5;exitDx=0;exitDy=0;entryX=0;entryY=0.5;entryDx=0;entryDy=0;" edge="1" parent="1" source="RIvgkRyRtE4WLVGtnzIA-1" target="RIvgkRyRtE4WLVGtnzIA-2">
          <mxGeometry width="50" height="50" relative="1" as="geometry">
            <mxPoint x="210" y="250" as="sourcePoint" />
            <mxPoint x="260" y="200" as="targetPoint" />
          </mxGeometry>
        </mxCell>
        <mxCell id="RIvgkRyRtE4WLVGtnzIA-9" value="" style="endArrow=classic;html=1;rounded=0;" edge="1" parent="1">
          <mxGeometry width="50" height="50" relative="1" as="geometry">
            <mxPoint x="355" y="205" as="sourcePoint" />
            <mxPoint x="405" y="205" as="targetPoint" />
          </mxGeometry>
        </mxCell>
        <mxCell id="RIvgkRyRtE4WLVGtnzIA-10" value="&lt;span style=&quot;text-wrap-mode: nowrap;&quot;&gt;1.1.2: enter username and password&lt;/span&gt;" style="text;html=1;align=center;verticalAlign=middle;whiteSpace=wrap;rounded=0;" vertex="1" parent="1">
          <mxGeometry x="310" y="210" width="175" height="30" as="geometry" />
        </mxCell>
        <mxCell id="RIvgkRyRtE4WLVGtnzIA-12" value="" style="endArrow=none;html=1;rounded=0;exitX=0.25;exitY=0;exitDx=0;exitDy=0;edgeStyle=orthogonalEdgeStyle;curved=1;entryX=0.75;entryY=0;entryDx=0;entryDy=0;" edge="1" parent="1" source="RIvgkRyRtE4WLVGtnzIA-2" target="RIvgkRyRtE4WLVGtnzIA-2">
          <mxGeometry width="50" height="50" relative="1" as="geometry">
            <mxPoint x="760" y="130" as="sourcePoint" />
            <mxPoint x="810" y="80" as="targetPoint" />
            <Array as="points">
              <mxPoint x="780" y="90" />
            </Array>
          </mxGeometry>
        </mxCell>
        <mxCell id="RIvgkRyRtE4WLVGtnzIA-13" value="" style="endArrow=classic;html=1;rounded=0;" edge="1" parent="1">
          <mxGeometry width="50" height="50" relative="1" as="geometry">
            <mxPoint x="750" y="110" as="sourcePoint" />
            <mxPoint x="800" y="110" as="targetPoint" />
          </mxGeometry>
        </mxCell>
        <mxCell id="RIvgkRyRtE4WLVGtnzIA-14" value="&lt;span style=&quot;text-wrap-mode: nowrap;&quot;&gt;1.1.3: Validate credentials&lt;/span&gt;" style="text;html=1;align=center;verticalAlign=middle;whiteSpace=wrap;rounded=0;" vertex="1" parent="1">
          <mxGeometry x="750" y="70" width="110" height="30" as="geometry" />
        </mxCell>
        <mxCell id="RIvgkRyRtE4WLVGtnzIA-15" value="" style="endArrow=none;html=1;rounded=0;entryX=0;entryY=0.75;entryDx=0;entryDy=0;exitX=1;exitY=0.75;exitDx=0;exitDy=0;edgeStyle=orthogonalEdgeStyle;curved=1;" edge="1" parent="1" source="RIvgkRyRtE4WLVGtnzIA-1" target="RIvgkRyRtE4WLVGtnzIA-2">
          <mxGeometry width="50" height="50" relative="1" as="geometry">
            <mxPoint x="600" y="360" as="sourcePoint" />
            <mxPoint x="650" y="310" as="targetPoint" />
            <Array as="points">
              <mxPoint x="160" y="270" />
              <mxPoint x="720" y="270" />
            </Array>
          </mxGeometry>
        </mxCell>
        <mxCell id="RIvgkRyRtE4WLVGtnzIA-16" value="" style="endArrow=classic;html=1;rounded=0;" edge="1" parent="1">
          <mxGeometry width="50" height="50" relative="1" as="geometry">
            <mxPoint x="440" y="290" as="sourcePoint" />
            <mxPoint x="390" y="290" as="targetPoint" />
          </mxGeometry>
        </mxCell>
        <mxCell id="RIvgkRyRtE4WLVGtnzIA-17" value="&lt;span style=&quot;text-wrap-mode: nowrap;&quot;&gt;1.1.4: access and redirect to dashboard&lt;/span&gt;" style="text;html=1;align=center;verticalAlign=middle;whiteSpace=wrap;rounded=0;" vertex="1" parent="1">
          <mxGeometry x="320" y="300" width="190" height="30" as="geometry" />
        </mxCell>
        <mxCell id="RIvgkRyRtE4WLVGtnzIA-18" value="" style="endArrow=none;html=1;rounded=0;entryX=0;entryY=0;entryDx=0;entryDy=0;exitX=1;exitY=0;exitDx=0;exitDy=0;edgeStyle=orthogonalEdgeStyle;curved=1;" edge="1" parent="1" source="RIvgkRyRtE4WLVGtnzIA-1" target="RIvgkRyRtE4WLVGtnzIA-2">
          <mxGeometry width="50" height="50" relative="1" as="geometry">
            <mxPoint x="340" y="90" as="sourcePoint" />
            <mxPoint x="390" y="40" as="targetPoint" />
            <Array as="points">
              <mxPoint x="160" y="90" />
              <mxPoint x="720" y="90" />
            </Array>
          </mxGeometry>
        </mxCell>
        <mxCell id="RIvgkRyRtE4WLVGtnzIA-20" value="" style="endArrow=classic;html=1;rounded=0;" edge="1" parent="1">
          <mxGeometry width="50" height="50" relative="1" as="geometry">
            <mxPoint x="430" y="80" as="sourcePoint" />
            <mxPoint x="380" y="80" as="targetPoint" />
          </mxGeometry>
        </mxCell>
        <mxCell id="RIvgkRyRtE4WLVGtnzIA-21" value="&lt;span style=&quot;text-wrap-mode: nowrap;&quot;&gt;1.1.5: show error massges&quot;Invalid username or password&quot;&lt;/span&gt;" style="text;html=1;align=center;verticalAlign=middle;whiteSpace=wrap;rounded=0;" vertex="1" parent="1">
          <mxGeometry x="270" y="40" width="290" height="30" as="geometry" />
        </mxCell>
        <mxCell id="RIvgkRyRtE4WLVGtnzIA-22" value="" style="endArrow=none;html=1;rounded=0;exitX=0.75;exitY=1;exitDx=0;exitDy=0;edgeStyle=orthogonalEdgeStyle;curved=1;entryX=0.25;entryY=1;entryDx=0;entryDy=0;" edge="1" parent="1" source="RIvgkRyRtE4WLVGtnzIA-1" target="RIvgkRyRtE4WLVGtnzIA-2">
          <mxGeometry width="50" height="50" relative="1" as="geometry">
            <mxPoint x="300" y="400" as="sourcePoint" />
            <mxPoint x="350" y="350" as="targetPoint" />
            <Array as="points">
              <mxPoint x="130" y="370" />
              <mxPoint x="750" y="370" />
            </Array>
          </mxGeometry>
        </mxCell>
        <mxCell id="RIvgkRyRtE4WLVGtnzIA-23" value="" style="endArrow=classic;html=1;rounded=0;" edge="1" parent="1">
          <mxGeometry width="50" height="50" relative="1" as="geometry">
            <mxPoint x="390" y="390" as="sourcePoint" />
            <mxPoint x="440" y="390" as="targetPoint" />
          </mxGeometry>
        </mxCell>
        <mxCell id="RIvgkRyRtE4WLVGtnzIA-24" value="&lt;span style=&quot;text-wrap-mode: nowrap;&quot;&gt;2.1.1: request to log out&lt;/span&gt;" style="text;html=1;align=center;verticalAlign=middle;whiteSpace=wrap;rounded=0;" vertex="1" parent="1">
          <mxGeometry x="372.5" y="400" width="85" height="30" as="geometry" />
        </mxCell>
        <mxCell id="RIvgkRyRtE4WLVGtnzIA-27" value="" style="endArrow=none;html=1;rounded=0;edgeStyle=orthogonalEdgeStyle;curved=1;entryX=1;entryY=0.25;entryDx=0;entryDy=0;" edge="1" parent="1" target="RIvgkRyRtE4WLVGtnzIA-2">
          <mxGeometry width="50" height="50" relative="1" as="geometry">
            <mxPoint x="810" y="160" as="sourcePoint" />
            <mxPoint x="920" y="130" as="targetPoint" />
            <Array as="points">
              <mxPoint x="810" y="130" />
              <mxPoint x="900" y="130" />
              <mxPoint x="900" y="175" />
            </Array>
          </mxGeometry>
        </mxCell>
        <mxCell id="RIvgkRyRtE4WLVGtnzIA-28" value="" style="endArrow=classic;html=1;rounded=0;" edge="1" parent="1">
          <mxGeometry width="50" height="50" relative="1" as="geometry">
            <mxPoint x="910" y="135" as="sourcePoint" />
            <mxPoint x="910" y="175" as="targetPoint" />
          </mxGeometry>
        </mxCell>
        <mxCell id="RIvgkRyRtE4WLVGtnzIA-29" value="&lt;span style=&quot;text-wrap-mode: nowrap;&quot;&gt;2.1.2: invalidate user session&lt;/span&gt;" style="text;html=1;align=center;verticalAlign=middle;whiteSpace=wrap;rounded=0;" vertex="1" parent="1">
          <mxGeometry x="930" y="140" width="130" height="35" as="geometry" />
        </mxCell>
        <mxCell id="RIvgkRyRtE4WLVGtnzIA-30" value="" style="endArrow=none;html=1;rounded=0;entryX=0.25;entryY=0;entryDx=0;entryDy=0;exitX=0.75;exitY=0;exitDx=0;exitDy=0;edgeStyle=orthogonalEdgeStyle;curved=1;" edge="1" parent="1" source="RIvgkRyRtE4WLVGtnzIA-1" target="RIvgkRyRtE4WLVGtnzIA-2">
          <mxGeometry width="50" height="50" relative="1" as="geometry">
            <mxPoint x="630" y="80" as="sourcePoint" />
            <mxPoint x="680" y="30" as="targetPoint" />
            <Array as="points">
              <mxPoint x="130" y="-20" />
              <mxPoint x="750" y="-20" />
            </Array>
          </mxGeometry>
        </mxCell>
        <mxCell id="RIvgkRyRtE4WLVGtnzIA-31" value="" style="endArrow=classic;html=1;rounded=0;" edge="1" parent="1">
          <mxGeometry width="50" height="50" relative="1" as="geometry">
            <mxPoint x="465" y="-40" as="sourcePoint" />
            <mxPoint x="425" y="-40" as="targetPoint" />
          </mxGeometry>
        </mxCell>
        <mxCell id="RIvgkRyRtE4WLVGtnzIA-32" value="&lt;span style=&quot;text-wrap-mode: nowrap;&quot;&gt;1.1.3: logged out successfully&lt;/span&gt;" style="text;html=1;align=center;verticalAlign=middle;whiteSpace=wrap;rounded=0;" vertex="1" parent="1">
          <mxGeometry x="360" y="-80" width="150" height="30" as="geometry" />
        </mxCell>
        <mxCell id="RIvgkRyRtE4WLVGtnzIA-33" value="" style="rounded=0;whiteSpace=wrap;html=1;" vertex="1" parent="1">
          <mxGeometry x="-360" y="160" width="120" height="60" as="geometry" />
        </mxCell>
        <mxCell id="RIvgkRyRtE4WLVGtnzIA-34" value="UI" style="text;html=1;align=center;verticalAlign=middle;whiteSpace=wrap;rounded=0;" vertex="1" parent="1">
          <mxGeometry x="-330" y="175" width="60" height="30" as="geometry" />
        </mxCell>
        <mxCell id="RIvgkRyRtE4WLVGtnzIA-35" value="" style="rounded=0;whiteSpace=wrap;html=1;" vertex="1" parent="1">
          <mxGeometry x="-360" y="470" width="120" height="60" as="geometry" />
        </mxCell>
        <mxCell id="RIvgkRyRtE4WLVGtnzIA-36" value="Server" style="text;html=1;align=center;verticalAlign=middle;whiteSpace=wrap;rounded=0;" vertex="1" parent="1">
          <mxGeometry x="-330" y="485" width="60" height="30" as="geometry" />
        </mxCell>
        <mxCell id="RIvgkRyRtE4WLVGtnzIA-37" value="" style="endArrow=none;html=1;rounded=0;entryX=0;entryY=0.25;entryDx=0;entryDy=0;exitX=1;exitY=0.25;exitDx=0;exitDy=0;" edge="1" parent="1" source="RIvgkRyRtE4WLVGtnzIA-33" target="RIvgkRyRtE4WLVGtnzIA-1">
          <mxGeometry width="50" height="50" relative="1" as="geometry">
            <mxPoint x="-160" y="210" as="sourcePoint" />
            <mxPoint x="-110" y="160" as="targetPoint" />
          </mxGeometry>
        </mxCell>
        <mxCell id="RIvgkRyRtE4WLVGtnzIA-38" value="" style="endArrow=classic;html=1;rounded=0;" edge="1" parent="1">
          <mxGeometry width="50" height="50" relative="1" as="geometry">
            <mxPoint x="-80" y="160" as="sourcePoint" />
            <mxPoint x="-120" y="160" as="targetPoint" />
          </mxGeometry>
        </mxCell>
        <mxCell id="RIvgkRyRtE4WLVGtnzIA-39" value="&lt;span style=&quot;font-size: 11px; text-wrap-mode: nowrap; background-color: rgb(255, 255, 255);&quot;&gt;3.1.1: request password reset&lt;/span&gt;" style="text;html=1;align=center;verticalAlign=middle;whiteSpace=wrap;rounded=0;" vertex="1" parent="1">
          <mxGeometry x="-160" y="130" width="130" height="30" as="geometry" />
        </mxCell>
        <mxCell id="RIvgkRyRtE4WLVGtnzIA-41" value="" style="endArrow=none;html=1;rounded=0;entryX=0.75;entryY=1;entryDx=0;entryDy=0;exitX=0.75;exitY=0;exitDx=0;exitDy=0;" edge="1" parent="1" source="RIvgkRyRtE4WLVGtnzIA-35" target="RIvgkRyRtE4WLVGtnzIA-33">
          <mxGeometry width="50" height="50" relative="1" as="geometry">
            <mxPoint x="-290" y="330" as="sourcePoint" />
            <mxPoint x="-240" y="280" as="targetPoint" />
          </mxGeometry>
        </mxCell>
        <mxCell id="RIvgkRyRtE4WLVGtnzIA-42" value="" style="endArrow=classic;html=1;rounded=0;" edge="1" parent="1">
          <mxGeometry width="50" height="50" relative="1" as="geometry">
            <mxPoint x="-250" y="310" as="sourcePoint" />
            <mxPoint x="-250" y="360" as="targetPoint" />
          </mxGeometry>
        </mxCell>
        <mxCell id="RIvgkRyRtE4WLVGtnzIA-43" value="&lt;span style=&quot;text-wrap-mode: nowrap;&quot;&gt;3.1.2: submit email address&lt;/span&gt;" style="text;html=1;align=center;verticalAlign=middle;whiteSpace=wrap;rounded=0;" vertex="1" parent="1">
          <mxGeometry x="-230" y="320" width="120" height="30" as="geometry" />
        </mxCell>
        <mxCell id="RIvgkRyRtE4WLVGtnzIA-44" value="" style="endArrow=classic;html=1;rounded=0;exitX=1;exitY=0;exitDx=0;exitDy=0;entryX=0;entryY=1;entryDx=0;entryDy=0;" edge="1" parent="1" source="RIvgkRyRtE4WLVGtnzIA-35" target="RIvgkRyRtE4WLVGtnzIA-1">
          <mxGeometry width="50" height="50" relative="1" as="geometry">
            <mxPoint x="-160" y="470" as="sourcePoint" />
            <mxPoint x="-110" y="420" as="targetPoint" />
          </mxGeometry>
        </mxCell>
        <mxCell id="RIvgkRyRtE4WLVGtnzIA-45" value="" style="endArrow=classic;html=1;rounded=0;" edge="1" parent="1">
          <mxGeometry width="50" height="50" relative="1" as="geometry">
            <mxPoint x="-110" y="390" as="sourcePoint" />
            <mxPoint x="-60" y="340" as="targetPoint" />
          </mxGeometry>
        </mxCell>
        <mxCell id="RIvgkRyRtE4WLVGtnzIA-46" value="&lt;span style=&quot;text-wrap-mode: nowrap;&quot;&gt;3.1.3: enter new password&lt;/span&gt;" style="text;html=1;align=center;verticalAlign=middle;whiteSpace=wrap;rounded=0;" vertex="1" parent="1">
          <mxGeometry x="-70" y="360" width="120" height="30" as="geometry" />
        </mxCell>
        <mxCell id="RIvgkRyRtE4WLVGtnzIA-47" value="" style="endArrow=none;html=1;rounded=0;entryX=0.25;entryY=1;entryDx=0;entryDy=0;edgeStyle=orthogonalEdgeStyle;curved=1;exitX=1;exitY=0.25;exitDx=0;exitDy=0;" edge="1" parent="1" source="RIvgkRyRtE4WLVGtnzIA-35" target="RIvgkRyRtE4WLVGtnzIA-1">
          <mxGeometry width="50" height="50" relative="1" as="geometry">
            <mxPoint x="80" y="350" as="sourcePoint" />
            <mxPoint x="130" y="300" as="targetPoint" />
            <Array as="points">
              <mxPoint x="-240" y="490" />
              <mxPoint x="110" y="490" />
              <mxPoint x="110" y="220" />
            </Array>
          </mxGeometry>
        </mxCell>
        <mxCell id="RIvgkRyRtE4WLVGtnzIA-48" value="" style="endArrow=classic;html=1;rounded=0;" edge="1" parent="1">
          <mxGeometry width="50" height="50" relative="1" as="geometry">
            <mxPoint x="115" y="440" as="sourcePoint" />
            <mxPoint x="85" y="480" as="targetPoint" />
          </mxGeometry>
        </mxCell>
        <mxCell id="RIvgkRyRtE4WLVGtnzIA-49" value="&lt;span style=&quot;text-wrap-mode: nowrap;&quot;&gt;3.1.4: save new password&lt;/span&gt;" style="text;html=1;align=center;verticalAlign=middle;whiteSpace=wrap;rounded=0;" vertex="1" parent="1">
          <mxGeometry x="110" y="455" width="120" height="30" as="geometry" />
        </mxCell>
        <mxCell id="RIvgkRyRtE4WLVGtnzIA-50" value="" style="endArrow=none;html=1;rounded=0;entryX=0.5;entryY=1;entryDx=0;entryDy=0;exitX=0.5;exitY=0;exitDx=0;exitDy=0;" edge="1" parent="1" source="RIvgkRyRtE4WLVGtnzIA-35" target="RIvgkRyRtE4WLVGtnzIA-33">
          <mxGeometry width="50" height="50" relative="1" as="geometry">
            <mxPoint x="-340" y="410" as="sourcePoint" />
            <mxPoint x="-290" y="360" as="targetPoint" />
          </mxGeometry>
        </mxCell>
        <mxCell id="RIvgkRyRtE4WLVGtnzIA-51" value="" style="endArrow=classic;html=1;rounded=0;" edge="1" parent="1">
          <mxGeometry width="50" height="50" relative="1" as="geometry">
            <mxPoint x="-320" y="360" as="sourcePoint" />
            <mxPoint x="-320" y="310" as="targetPoint" />
          </mxGeometry>
        </mxCell>
        <mxCell id="RIvgkRyRtE4WLVGtnzIA-52" value="&lt;span style=&quot;text-wrap-mode: nowrap;&quot;&gt;3.1.5: display &quot;password reset&quot;&lt;/span&gt;" style="text;html=1;align=center;verticalAlign=middle;whiteSpace=wrap;rounded=0;" vertex="1" parent="1">
          <mxGeometry x="-480" y="320" width="140" height="30" as="geometry" />
        </mxCell>
        <mxCell id="RIvgkRyRtE4WLVGtnzIA-53" value="" style="rounded=0;whiteSpace=wrap;html=1;" vertex="1" parent="1">
          <mxGeometry x="-360" y="-180" width="120" height="60" as="geometry" />
        </mxCell>
        <mxCell id="RIvgkRyRtE4WLVGtnzIA-54" value="System" style="text;html=1;align=center;verticalAlign=middle;whiteSpace=wrap;rounded=0;" vertex="1" parent="1">
          <mxGeometry x="-330" y="-165" width="60" height="30" as="geometry" />
        </mxCell>
        <mxCell id="RIvgkRyRtE4WLVGtnzIA-55" value="" style="endArrow=none;html=1;rounded=0;exitX=0;exitY=0;exitDx=0;exitDy=0;entryX=1;entryY=1;entryDx=0;entryDy=0;" edge="1" parent="1" source="RIvgkRyRtE4WLVGtnzIA-1" target="RIvgkRyRtE4WLVGtnzIA-53">
          <mxGeometry width="50" height="50" relative="1" as="geometry">
            <mxPoint x="40" y="150" as="sourcePoint" />
            <mxPoint x="90" y="-10" as="targetPoint" />
          </mxGeometry>
        </mxCell>
        <mxCell id="RIvgkRyRtE4WLVGtnzIA-56" value="" style="endArrow=classic;html=1;rounded=0;" edge="1" parent="1">
          <mxGeometry width="50" height="50" relative="1" as="geometry">
            <mxPoint x="-90" as="sourcePoint" />
            <mxPoint x="-120" y="-30" as="targetPoint" />
          </mxGeometry>
        </mxCell>
        <mxCell id="RIvgkRyRtE4WLVGtnzIA-57" value="&lt;span style=&quot;text-wrap-mode: nowrap;&quot;&gt;4.1.1: Open contact support page&lt;/span&gt;" style="text;html=1;align=center;verticalAlign=middle;whiteSpace=wrap;rounded=0;" vertex="1" parent="1">
          <mxGeometry x="-100" y="-40" width="160" height="30" as="geometry" />
        </mxCell>
        <mxCell id="RIvgkRyRtE4WLVGtnzIA-58" value="" style="endArrow=none;html=1;rounded=0;entryX=0.75;entryY=1;entryDx=0;entryDy=0;exitX=0;exitY=0.25;exitDx=0;exitDy=0;" edge="1" parent="1" source="RIvgkRyRtE4WLVGtnzIA-1" target="RIvgkRyRtE4WLVGtnzIA-53">
          <mxGeometry width="50" height="50" relative="1" as="geometry">
            <mxPoint x="-290" y="20" as="sourcePoint" />
            <mxPoint x="-240" y="-30" as="targetPoint" />
          </mxGeometry>
        </mxCell>
        <mxCell id="RIvgkRyRtE4WLVGtnzIA-59" value="" style="endArrow=classic;html=1;rounded=0;" edge="1" parent="1">
          <mxGeometry width="50" height="50" relative="1" as="geometry">
            <mxPoint x="-180" y="-10" as="sourcePoint" />
            <mxPoint x="-150" y="20" as="targetPoint" />
          </mxGeometry>
        </mxCell>
        <mxCell id="RIvgkRyRtE4WLVGtnzIA-60" value="&lt;span style=&quot;text-wrap-mode: nowrap;&quot;&gt;4.1.2: Submit support request&lt;/span&gt;" style="text;html=1;align=center;verticalAlign=middle;whiteSpace=wrap;rounded=0;" vertex="1" parent="1">
          <mxGeometry x="-320" width="140" height="30" as="geometry" />
        </mxCell>
        <mxCell id="RIvgkRyRtE4WLVGtnzIA-61" value="" style="endArrow=none;html=1;rounded=0;exitX=0.25;exitY=0;exitDx=0;exitDy=0;entryX=1;entryY=0.75;entryDx=0;entryDy=0;edgeStyle=orthogonalEdgeStyle;curved=1;" edge="1" parent="1" source="RIvgkRyRtE4WLVGtnzIA-1" target="RIvgkRyRtE4WLVGtnzIA-53">
          <mxGeometry width="50" height="50" relative="1" as="geometry">
            <mxPoint x="80" y="120" as="sourcePoint" />
            <mxPoint x="130" y="70" as="targetPoint" />
            <Array as="points">
              <mxPoint x="90" y="160" />
              <mxPoint x="90" y="-150" />
              <mxPoint x="-240" y="-150" />
            </Array>
          </mxGeometry>
        </mxCell>
        <mxCell id="RIvgkRyRtE4WLVGtnzIA-62" value="" style="endArrow=classic;html=1;rounded=0;" edge="1" parent="1">
          <mxGeometry width="50" height="50" relative="1" as="geometry">
            <mxPoint x="80" y="-105" as="sourcePoint" />
            <mxPoint x="50" y="-135" as="targetPoint" />
          </mxGeometry>
        </mxCell>
        <mxCell id="RIvgkRyRtE4WLVGtnzIA-63" value="&lt;span style=&quot;text-wrap-mode: nowrap;&quot;&gt;4.1.3: save request&lt;/span&gt;" style="text;html=1;align=center;verticalAlign=middle;whiteSpace=wrap;rounded=0;" vertex="1" parent="1">
          <mxGeometry x="90" y="-135" width="60" height="30" as="geometry" />
        </mxCell>
        <mxCell id="RIvgkRyRtE4WLVGtnzIA-65" value="" style="endArrow=none;html=1;rounded=0;entryX=0.25;entryY=1;entryDx=0;entryDy=0;exitX=0;exitY=0.5;exitDx=0;exitDy=0;edgeStyle=orthogonalEdgeStyle;curved=1;" edge="1" parent="1" source="RIvgkRyRtE4WLVGtnzIA-1" target="RIvgkRyRtE4WLVGtnzIA-53">
          <mxGeometry width="50" height="50" relative="1" as="geometry">
            <mxPoint x="-390" y="60" as="sourcePoint" />
            <mxPoint x="-340" y="10" as="targetPoint" />
            <Array as="points">
              <mxPoint x="40" y="170" />
              <mxPoint x="-400" y="170" />
              <mxPoint x="-400" y="-120" />
            </Array>
          </mxGeometry>
        </mxCell>
        <mxCell id="RIvgkRyRtE4WLVGtnzIA-66" value="" style="endArrow=classic;html=1;rounded=0;" edge="1" parent="1">
          <mxGeometry width="50" height="50" relative="1" as="geometry">
            <mxPoint x="-425" y="60" as="sourcePoint" />
            <mxPoint x="-405" y="100" as="targetPoint" />
          </mxGeometry>
        </mxCell>
        <mxCell id="RIvgkRyRtE4WLVGtnzIA-67" value="&lt;span style=&quot;text-wrap-mode: nowrap;&quot;&gt;4.1.4: confirm submission&lt;/span&gt;" style="text;html=1;align=center;verticalAlign=middle;whiteSpace=wrap;rounded=0;" vertex="1" parent="1">
          <mxGeometry x="-540" y="70" width="100" height="30" as="geometry" />
        </mxCell>
      </root>
    </mxGraphModel>
  </diagram>
</mxfile>
